<?xml version="1.0" encoding="UTF-8" standalone="no"?>
<svg
   xmlns:dc="http://purl.org/dc/elements/1.1/"
   xmlns:cc="http://creativecommons.org/ns#"
   xmlns:rdf="http://www.w3.org/1999/02/22-rdf-syntax-ns#"
   xmlns:svg="http://www.w3.org/2000/svg"
   xmlns="http://www.w3.org/2000/svg"
   xmlns:sodipodi="http://sodipodi.sourceforge.net/DTD/sodipodi-0.dtd"
   xmlns:inkscape="http://www.inkscape.org/namespaces/inkscape"
   width="210mm"
   height="297mm"
   viewBox="0 0 210 297"
   version="1.1"
   id="svg8"
   inkscape:version="1.0.2-2 (e86c870879, 2021-01-15)"
   sodipodi:docname="wr bend drawing.svg">
  <defs
     id="defs2" />
  <sodipodi:namedview
     id="base"
     pagecolor="#ffffff"
     bordercolor="#666666"
     borderopacity="1.0"
     inkscape:pageopacity="0.0"
     inkscape:pageshadow="2"
     inkscape:zoom="0.7"
     inkscape:cx="-143.3683"
     inkscape:cy="443.2574"
     inkscape:document-units="mm"
     inkscape:current-layer="layer1"
     inkscape:document-rotation="0"
     showgrid="false"
     inkscape:window-width="1920"
     inkscape:window-height="1017"
     inkscape:window-x="-8"
     inkscape:window-y="-8"
     inkscape:window-maximized="1" />
  <metadata
     id="metadata5">
    <rdf:RDF>
      <cc:Work
         rdf:about="">
        <dc:format>image/svg+xml</dc:format>
        <dc:type
           rdf:resource="http://purl.org/dc/dcmitype/StillImage" />
        <dc:title />
      </cc:Work>
    </rdf:RDF>
  </metadata>
  <g
     inkscape:label="Layer 1"
     inkscape:groupmode="layer"
     id="layer1">
    <path
       style="fill:none;stroke:#000000;stroke-width:0.264583px;stroke-linecap:butt;stroke-linejoin:miter;stroke-opacity:1"
       d="M 117.39472,82.156982 C 80.942587,45.100337 114.51889,8.8236549 114.51889,8.8236549 l 12.05021,9.4085681 c 0,0 -30.51646,21.652544 0.21207,62.835838 z"
       id="path858" />
    <path
       style="fill:none;stroke:#000000;stroke-width:0.264583px;stroke-linecap:butt;stroke-linejoin:miter;stroke-opacity:1"
       d="m 124.03922,5.6933317 -5.458,6.3083223 3.72137,2.83333 4.45238,-5.8478654 z"
       id="path860" />
    <path
       style="fill:none;stroke:#000000;stroke-width:0.264583px;stroke-linecap:butt;stroke-linejoin:miter;stroke-opacity:1"
       d="m 120.38377,81.958074 2.27812,5.119298 3.35787,-0.448185 -2.18261,-5.26035"
       id="path866" />
    <path
       style="fill:none;stroke:#000000;stroke-width:0.26903px;stroke-linecap:butt;stroke-linejoin:miter;stroke-opacity:1"
       d="M 74.522731,82.507349 C 112.75196,45.991099 78.574947,9.2241576 78.574947,9.2241576 L 65.97909,18.454388 c 0,0 31.228992,22.099331 -1.143954,62.826022 z"
       id="path858-1" />
    <path
       style="fill:none;stroke:#000000;stroke-width:0.26903px;stroke-linecap:butt;stroke-linejoin:miter;stroke-opacity:1"
       d="m 68.778982,5.9540624 5.549594,6.3879736 -3.888815,2.778263 -4.516765,-5.9127664 z"
       id="path860-8" />
    <path
       style="fill:none;stroke:#000000;stroke-width:0.26903px;stroke-linecap:butt;stroke-linejoin:miter;stroke-opacity:1"
       d="m 71.435618,82.264475 -2.430439,5.085228 -3.464741,-0.497554 2.333768,-5.22767"
       id="path866-3" />
    <path
       style="fill:none;stroke:#000000;stroke-width:0.279686px;stroke-linecap:butt;stroke-linejoin:miter;stroke-opacity:1"
       d="m 113.33735,174.1938 c 39.94373,-37.96952 1.67291,-73.39028 1.67291,-73.39028 l -13.26414,9.71095 c 0,0 34.54553,20.87704 1.08245,62.82775 z"
       id="path858-9" />
    <path
       style="fill:none;stroke:#000000;stroke-width:0.279686px;stroke-linecap:butt;stroke-linejoin:miter;stroke-opacity:1"
       d="m 104.30907,97.914352 6.22975,6.169098 -4.09776,2.92673 -5.09671,-5.73414 z"
       id="path860-3" />
    <path
       style="fill:none;stroke:#000000;stroke-width:0.279686px;stroke-linecap:butt;stroke-linejoin:miter;stroke-opacity:1"
       d="m 109.99402,174.07044 -2.43748,5.17575 -3.76059,-0.36327 2.32781,-5.31436"
       id="path866-0" />
    <path
       style="fill:none;stroke:#000000;stroke-width:0.263286px;stroke-linecap:butt;stroke-linejoin:miter;stroke-opacity:1"
       d="m 79.842588,175.45093 c -37.41483,-35.719 -5.503502,-73.18149 -5.503502,-73.18149 l 12.265481,8.96824 c 0,0 -29.413403,22.73774 2.487084,62.78688 z"
       id="path858-1-9" />
    <path
       style="fill:none;stroke:#000000;stroke-width:0.263286px;stroke-linecap:butt;stroke-linejoin:miter;stroke-opacity:1"
       d="m 83.646659,98.798179 -5.172436,6.500811 3.785231,2.6974 4.193986,-6.00443 z"
       id="path860-8-3" />
    <path
       style="fill:none;stroke:#000000;stroke-width:0.263286px;stroke-linecap:butt;stroke-linejoin:miter;stroke-opacity:1"
       d="m 82.793234,175.14447 2.439895,5.03386 3.306596,-0.56887 -2.350476,-5.17826"
       id="path866-3-0" />
    <path
       style="fill:none;stroke:#000000;stroke-width:0.252825px;stroke-linecap:butt;stroke-linejoin:miter;stroke-opacity:1"
       d="m 120.57786,200.6651 -17.57397,-0.31316 -0.6654,83.17298 18.34095,-1.06126 z"
       id="path968" />
    <path
       style="fill:none;stroke:#000000;stroke-width:0.252825px;stroke-linecap:butt;stroke-linejoin:miter;stroke-opacity:1"
       d="m 113.5869,200.43661 0.17457,-10.00761 -6.23503,-0.22246 0.20271,10.09692"
       id="path970" />
    <path
       style="fill:none;stroke:#000000;stroke-width:0.258116px;stroke-linecap:butt;stroke-linejoin:miter;stroke-opacity:1"
       d="m 114.62735,282.90865 0.0109,10.43912 -6.23387,0.13011 0.36752,-10.52609"
       id="path970-0" />
    <path
       style="fill:none;stroke:#000000;stroke-width:0.252825px;stroke-linecap:butt;stroke-linejoin:miter;stroke-opacity:1"
       d="M 92.425857,201.64294 74.85191,201.32978 74.186516,284.50276 92.527443,283.4415 Z"
       id="path968-3" />
    <path
       style="fill:none;stroke:#000000;stroke-width:0.252825px;stroke-linecap:butt;stroke-linejoin:miter;stroke-opacity:1"
       d="m 85.434901,201.41445 0.174565,-10.00762 -6.23503,-0.22245 0.202713,10.09692"
       id="path970-4" />
    <path
       style="fill:none;stroke:#000000;stroke-width:0.258116px;stroke-linecap:butt;stroke-linejoin:miter;stroke-opacity:1"
       d="m 86.475349,283.88649 0.01089,10.43912 -6.23387,0.13011 0.367519,-10.52609"
       id="path970-0-8" />
    <rect
       style="fill:#323232;stroke:#ffffff;stroke-width:0.257991;stroke-opacity:0.992157"
       id="rect1020"
       width="107.73667"
       height="7.4404755"
       x="186.45248"
       y="-103.22405"
       transform="rotate(90.458363)" />
    <path
       style="fill:none;stroke:#000000;stroke-width:0.264583px;stroke-linecap:butt;stroke-linejoin:miter;stroke-opacity:1"
       d="M 106.52141,12.705221 83.657865,12.067297 c 0,0 23.591025,30.693082 0.332152,71.630787"
       id="path1080" />
    <path
       style="fill:none;stroke:#000000;stroke-width:0.264583px;stroke-linecap:butt;stroke-linejoin:miter;stroke-opacity:1"
       d="m 83.990017,83.698084 22.111023,0.159994 c 0,0 -16.203726,-46.042578 0.42037,-71.152857"
       id="path1082" />
    <path
       style="fill:#323232;fill-opacity:0;stroke:#ffffff;stroke-width:0.0944941;stroke-opacity:0.992157"
       d="m 85.349118,12.310417 c 0.691668,0.0058 5.147664,0.122436 9.902213,0.259246 4.754549,0.136808 9.164609,0.253137 9.800129,0.258505 l 1.1555,0.0097 -0.50658,0.823179 c -7.219559,11.731756 -8.769168,29.869878 -4.45767,52.176885 1.03936,5.377488 2.43186,10.927606 4.047,16.130252 0.2771,0.892557 0.50362,1.648988 0.50339,1.680954 -2.4e-4,0.03197 -4.82658,0.0232 -10.725217,-0.01948 -5.898639,-0.04268 -10.724648,-0.09798 -10.724468,-0.122863 1.8e-4,-0.0249 0.369287,-0.72231 0.820236,-1.549821 0.958334,-1.758584 2.361455,-4.657685 3.245783,-6.706388 6.362036,-14.738775 7.680482,-29.859974 3.878508,-44.482469 -1.597532,-6.14415 -4.399393,-12.656504 -7.435184,-17.28156 -0.342768,-0.522213 -0.654266,-1.002854 -0.692218,-1.068096 -0.0538,-0.0925 0.207965,-0.116307 1.188578,-0.108121 z"
       id="path1084" />
    <path
       style="fill:#323232;fill-opacity:1;stroke:#ffffff;stroke-width:0.0944941;stroke-opacity:0.992157"
       d="m 85.296593,12.308386 c 1.225593,0.0086 19.504637,0.501599 20.408527,0.550416 l 0.48632,0.02627 -0.62007,1.025693 c -2.74237,4.536316 -4.73087,10.2492 -5.761225,16.551736 -0.131542,0.80463 -0.269567,1.717886 -0.306724,2.029455 -0.03715,0.311569 -0.08496,0.693935 -0.106248,0.849698 -0.06382,0.467093 -0.239076,2.308043 -0.296667,3.11624 -0.02961,0.415571 -0.08135,1.138565 -0.114977,1.606657 -0.103348,1.438724 -0.116378,7.552797 -0.02004,9.40121 0.573979,11.012169 2.799261,23.147235 6.314521,34.43485 0.28259,0.907406 0.51354,1.685131 0.51323,1.728276 -3.1e-4,0.04314 -4.83026,0.0435 -10.733238,7.83e-4 -5.902967,-0.04271 -10.718236,-0.11312 -10.700597,-0.156459 0.01764,-0.04334 0.642281,-1.261367 1.388097,-2.706729 2.081727,-4.034316 3.372265,-7.00007 4.689896,-10.777762 2.06236,-5.912851 3.234835,-11.422037 3.785071,-17.785203 0.230026,-2.660101 0.188974,-8.269145 -0.07954,-10.867676 C 93.271499,32.902537 91.28925,25.873694 87.754348,18.682633 86.655513,16.447269 85.732744,14.834801 84.251082,12.560944 L 84.08095,12.299849 Z"
       id="path1086" />
    <path
       style="fill:none;stroke:#000000;stroke-width:0.264583px;stroke-linecap:butt;stroke-linejoin:miter;stroke-opacity:1"
       d="m 100.42037,113.99034 -13.412479,0.39019 c 0,0 -24.570746,23.02485 1.801892,55.43906"
       id="path1088" />
    <path
       style="fill:none;stroke:#000000;stroke-width:0.264583px;stroke-linecap:butt;stroke-linejoin:miter;stroke-opacity:1"
       d="m 88.809783,169.81959 12.559657,-0.45993 c 0,0 27.54863,-31.14687 -0.94907,-55.36933"
       id="path1090" />
    <path
       style="fill:#323232;fill-opacity:1;stroke:#ffffff;stroke-width:0.267269;stroke-opacity:0.992157"
       d="m 77.178415,135.32822 c 1.058606,-7.16589 3.706908,-13.09434 8.501329,-19.03095 l 1.271521,-1.57444 6.759921,-0.19666 6.759924,-0.19666 2.51618,2.50838 c 4.27398,4.26072 7.36495,9.27452 8.91739,14.46471 0.68936,2.30467 0.79271,3.10949 0.93315,7.26634 0.12277,3.63427 0.0618,5.18319 -0.27401,6.95992 -1.3455,7.11879 -4.77692,14.72569 -9.62471,21.33638 l -1.65292,2.25399 -6.24342,0.18163 -6.243417,0.18164 -2.521149,-3.55075 c -4.038845,-5.68823 -6.794155,-11.38656 -8.310547,-17.18725 -0.788981,-3.01812 -1.226539,-10.45614 -0.789242,-13.41628 z"
       id="path1092" />
  </g>
</svg>
